# xmcd CD database file
#
# Track frame offsets:
#	150
#	23909
#	47944
#	69747
#	105932
#	121723
#	146646
#	162747
#	190886
#	217460
#
# Disc length: 3043 seconds
#
# Revision: 1
# Processed by: cddbd v1.5.2PL0 Copyright (c) Steve Scherf et al.
# Submitted via: CDex 1.70beta2
#
DISCID=990be10a
DTITLE=Achim Kaufmann - Verivyr
DYEAR=2011
DGENRE=Jazz
TTITLE0=Permission
TTITLE1=Elephant And Boats
TTITLE2=Kobuk
TTITLE3=Gatur - Christiana
TTITLE4=Bright Industrial Smile
TTITLE5=Fada Verde
TTITLE6=La Quadrimoteur
TTITLE7=Lonceng-Lonceng
TTITLE8=Berlin No Lights
TTITLE9=E Jinx
EXTD=YEAR: 2011
EXTT0=
EXTT1=
EXTT2=
EXTT3=
EXTT4=
EXTT5=
EXTT6=
EXTT7=
EXTT8=
EXTT9=
PLAYORDER=
